<?xml version="1.0" standalone="no"?><!DOCTYPE svg PUBLIC "-//W3C//DTD SVG 1.1//EN" "http://www.w3.org/Graphics/SVG/1.1/DTD/svg11.dtd"><svg t="1498110938296" class="icon" style="" viewBox="0 0 1024 1024" version="1.1" xmlns="http://www.w3.org/2000/svg" p-id="5414" xmlns:xlink="http://www.w3.org/1999/xlink" width="200" height="200"><defs><style type="text/css"></style></defs><path d="M556.977377 274.880511 469.345528 274.880511 469.345528 467.942575 276.279371 467.942575 276.279371 555.573401 469.345528 555.573401 469.345528 749.119489 556.977377 749.119489 556.977377 555.573401 750.525512 555.573401 750.525512 467.942575 556.977377 467.942575Z" p-id="5415" fill="#1296db"></path><path d="M512.007163 63.660902c-247.614517 0-448.346261 192.545294-448.346261 440.156742 0 247.610424 200.729697 456.520431 448.346261 456.520431 247.603261 0 448.329888-200.726627 448.329888-448.339098C960.339098 264.388553 759.609401 63.660902 512.007163 63.660902zM511.594771 866.840634c-196.824761 0-356.378663-159.551856-356.378663-356.363314 0-196.809411 159.553902-356.360244 356.378663-356.360244 196.814528 0 356.367407 159.550833 356.367407 356.360244C867.961154 707.288778 708.408275 866.840634 511.594771 866.840634z" p-id="5416" fill="#1296db"></path></svg>