<?xml version="1.0" standalone="no"?><!DOCTYPE svg PUBLIC "-//W3C//DTD SVG 1.1//EN" "http://www.w3.org/Graphics/SVG/1.1/DTD/svg11.dtd"><svg t="1498811372185" class="icon" style="" viewBox="0 0 1024 1024" version="1.1" xmlns="http://www.w3.org/2000/svg" p-id="11783" xmlns:xlink="http://www.w3.org/1999/xlink" width="200" height="200"><defs><style type="text/css"></style></defs><path d="M953.516204 675.271574l-218.559784-80.486102 0 64.685231L608.510566 659.470703c-7.797593-119.770827-103.564727-215.537961-223.335554-223.335554L385.175011 282.901185l64.685231 0L369.37414 64.310701l-80.486102 218.590484 64.685231 0 0 153.23294c-119.743198 7.79964-215.507262 103.56575-223.304855 223.335554L70.482773 659.46968l0 31.601742 59.785641 0c7.797593 119.769804 103.561657 215.536938 223.304855 223.336578l0 45.280276 31.602765 0 0-45.280276c119.771851-7.797593 215.537961-103.56575 223.335554-223.336578l126.44483 0 0 64.685231L953.516204 675.271574zM485.522464 659.46968l-100.347452 0 0-100.347452C437.276646 566.141084 478.503607 607.368044 485.522464 659.46968zM353.573269 559.124274l0 100.346429-100.31573 0C260.27435 607.371114 301.496194 566.145178 353.573269 559.124274zM253.257539 691.071422l100.31573 0 0 100.346429C301.49824 784.392854 260.27742 743.150544 253.257539 691.071422zM385.175011 791.417851l0-100.346429 100.346429 0C478.50156 743.152591 437.2746 784.395924 385.175011 791.417851z" p-id="11784" fill="#bfbfbf"></path></svg>