<?xml version="1.0" standalone="no"?><!DOCTYPE svg PUBLIC "-//W3C//DTD SVG 1.1//EN" "http://www.w3.org/Graphics/SVG/1.1/DTD/svg11.dtd"><svg t="1498108920702" class="icon" style="" viewBox="0 0 1024 1024" version="1.1" xmlns="http://www.w3.org/2000/svg" p-id="2373" xmlns:xlink="http://www.w3.org/1999/xlink" width="200" height="200"><defs><style type="text/css"></style></defs><path d="M792 400.1l-56 0 0-112c0-123.5-100.5-224-224-224s-224 100.5-224 224l0 112-56 0c-30.9 0-56 25.1-56 56l0 448c0 30.9 25.1 56 56 56l560 0c30.9 0 56-25.1 56-56l0-448C848 425.2 822.9 400.1 792 400.1zM568 792.1 456 792.1l28-93.7c0-12.3-2-23.1-11.6-30.8-12.8-10.2-16.4-25.9-16.4-43.5 0-30.9 25.1-56 56-56s56 25.1 56 56c0 17.7-3.6 33.3-16.4 43.5C542 675.3 540 686 540 698.4L568 792.1zM680 400.1 344 400.1l0-112c0-92.6 75.4-168 168-168s168 75.4 168 168L680 400.1z" p-id="2374" fill="#bfbfbf"></path></svg>