<?xml version="1.0" standalone="no"?><!DOCTYPE svg PUBLIC "-//W3C//DTD SVG 1.1//EN" "http://www.w3.org/Graphics/SVG/1.1/DTD/svg11.dtd"><svg t="1498108933944" class="icon" style="" viewBox="0 0 1024 1024" version="1.1" xmlns="http://www.w3.org/2000/svg" p-id="2977" xmlns:xlink="http://www.w3.org/1999/xlink" width="200" height="200"><defs><style type="text/css"></style></defs><path d="M855.132476 957.913862 165.757696 957.913862c-24.838711 0-44.966121-20.175505-44.966121-45.078685L120.791575 522.144034c0-24.904203 20.12741-45.079708 44.966121-45.079708l74.930573 0L240.688269 333.024769c0-149.399635 120.779807-270.486434 269.75784-270.486434 148.969846 0 269.765003 121.086799 269.765003 270.486434 0 24.88783-20.142759 45.071522-44.950771 45.071522-24.837688 0-44.982494-20.183691-44.982494-45.071522 0-99.600439-80.507592-180.335205-179.831738-180.335205-99.324146 0-179.840948 80.734766-179.840948 180.335205l0 144.039557 359.672686 0 89.933265 0 74.922387 0c24.839735 0 44.966121 20.175505 44.966121 45.079708l0 390.691143C900.09962 937.738357 879.973234 957.913862 855.132476 957.913862zM510.445086 609.712439c-31.972179 0-57.888432 26.716478-57.888432 59.684334 0 22.054295 11.724019 41.080627 28.952402 51.427276l0 58.017368c0 16.468067 12.955056 29.842679 28.936029 29.842679s28.935006-13.374612 28.935006-29.842679l0-58.017368c17.228383-10.346649 28.953426-29.372981 28.953426-51.427276C568.334541 636.429941 542.410102 609.712439 510.445086 609.712439z" p-id="2978" fill="#1296db"></path></svg>