<?xml version="1.0" standalone="no"?><!DOCTYPE svg PUBLIC "-//W3C//DTD SVG 1.1//EN" "http://www.w3.org/Graphics/SVG/1.1/DTD/svg11.dtd"><svg t="1499343861893" class="icon" style="" viewBox="0 0 1024 1024" version="1.1" xmlns="http://www.w3.org/2000/svg" p-id="2408" xmlns:xlink="http://www.w3.org/1999/xlink" width="200" height="200"><defs><style type="text/css"></style></defs><path d="M634.542 510.597a1823.972 1823.972 0 0 0 38-11.12 2210.451 2210.451 0 0 1 32.462-9.534c11.09-3.195 20.305-6.103 27.709-8.735l-11.1 42.076c-3.175 11.654-6.073 20.388-8.694 26.215-5.294 14.295-11.479 27.525-18.627 39.69-7.116 12.196-13.824 22.784-20.162 31.785-7.404 10.578-15.053 20.367-22.958 29.368l-97.362 29.39 79.954 14.284c-10.568 9.001-21.914 18.258-34.038 27.802-10.568 7.936-22.559 16.291-36.024 24.995-13.445 8.745-27.566 16.825-42.353 24.218-14.756 7.414-31.273 11.274-49.46 11.52-18.216 0.256-35.49-0.911-51.844-3.563-18.995-2.653-37.99-7.148-56.986-13.497 5.806-9.011 12.135-19.067 18.995-30.177 5.796-9.544 12.8-20.777 20.972-33.761 8.182-12.964 16.753-27.392 25.733-43.275a12884.708 12884.708 0 0 0 73.615-126.259 32450.878 32450.878 0 0 0 64.123-111.974c21.627-38.636 42.466-75.162 62.526-109.578-24.812 28.57-50.934 60.6-78.357 96.092-23.757 30.167-50.145 66.027-79.155 107.581-29.03 41.554-58.573 86.958-88.668 136.192-6.318 10.046-13.445 21.709-21.36 34.929-7.916 13.23-16.22 27.28-24.945 42.107a18853.097 18853.097 0 0 1-26.9 45.65 5811.803 5811.803 0 0 1-27.311 45.65c-21.115 34.406-42.752 70.42-64.911 108 0.532-11.11 2.642-25.405 6.338-42.884 3.154-14.807 8.428-33.352 15.821-55.593 7.393-22.242 17.94-48.425 31.672-78.613 8.97-19.046 15.831-33.874 20.573-44.452a5371.401 5371.401 0 0 1 11.09-24.627c2.641-6.349 4.75-10.578 6.338-12.697-2.642-3.175-3.174-9.534-1.587-19.057 1.065-8.469 4.096-20.787 9.103-36.925 5.018-16.139 13.589-38.79 25.723-67.902 12.145-29.634 28.109-61.542 47.882-95.672 19.794-34.15 42.097-68.045 66.898-101.642 24.791-33.618 51.722-66.171 80.732-97.67 29.03-31.518 58.706-59.443 89.058-83.794s60.692-44.339 91.013-59.944c30.361-15.637 59.78-24.495 88.269-26.614 0.553 18.534-1.321 43.008-5.55 73.462-4.199 30.433-9.483 62.986-15.821 97.669-6.318 34.683-13.456 69.877-21.361 105.615-7.926 35.738-15.575 68.168-22.968 97.28l-106.097 57.99z" fill="#000" p-id="2409"></path></svg>