<?xml version="1.0" standalone="no"?><!DOCTYPE svg PUBLIC "-//W3C//DTD SVG 1.1//EN" "http://www.w3.org/Graphics/SVG/1.1/DTD/svg11.dtd"><svg t="1498806776109" class="icon" style="" viewBox="0 0 1024 1024" version="1.1" xmlns="http://www.w3.org/2000/svg" p-id="4065" id="mx_n_1498806776110" xmlns:xlink="http://www.w3.org/1999/xlink" width="200" height="200"><defs><style type="text/css"></style></defs><path d="M151.44 241.36l-45.12 0c0 0.08 0.048 0.128 0.048 0.224l0 45.072c0 12.4-5.056 22.528-11.264 22.528-6.208 0-11.28-10.144-11.28-22.528l0-45.072c0-0.08 0.016-0.128 0.016-0.224l-22.56 0C36.304 241.36 16 261.664 16 286.64l0 135.216c0 24.976 20.304 45.296 45.296 45.296l90.16 0L151.456 241.36z" p-id="4066" fill="#ffffff"></path><path d="M962.704 241.36l-45.12 0c0 0.08 0.048 0.128 0.048 0.224l0 45.072c0 12.4-5.056 22.528-11.264 22.528-6.208 0-11.264-10.144-11.264-22.528l0-45.072c0-0.08 0-0.128 0-0.224l-67.648 0c0 0.08 0.048 0.128 0.048 0.224l0 45.072c0 12.4-5.056 22.528-11.264 22.528s-11.264-10.144-11.264-22.528l0-45.072c0-0.08 0-0.128 0-0.224l-67.648 0c0 0.08 0.048 0.128 0.048 0.224l0 45.072c0 12.4-5.056 22.528-11.264 22.528-6.208 0-11.264-10.144-11.264-22.528l0-45.072c0-0.08 0-0.128 0-0.224l-67.648 0c0 0.08 0.048 0.128 0.048 0.224l0 45.072c0 12.4-5.056 22.528-11.264 22.528-6.208 0-11.264-10.144-11.264-22.528l0-45.072c0-0.08 0-0.128 0-0.224l-67.648 0c0 0.08 0.048 0.128 0.048 0.224l0 45.072c0 12.4-5.056 22.528-11.264 22.528-6.208 0-11.264-10.144-11.264-22.528l0-45.072c0-0.08 0-0.128 0-0.224l-67.6 0 0 0.224 0 45.072 0 180.496 495.776 0c24.96 0 45.296-20.32 45.296-45.296l0-135.216C1008 261.664 987.664 241.36 962.704 241.36z" p-id="4067" fill="#ffffff"></path><path d="M376.8 61.072l-135.216 0c-24.992 0-45.296 20.304-45.296 45.296l0 67.632c0.08 0 0.128-0.016 0.224-0.016l45.072 0c12.368 0 22.528 5.056 22.528 11.264 0 6.208-10.16 11.264-22.528 11.264l-45.072 0c-0.08 0-0.128-0.016-0.224-0.016l0 67.648c0.08 0 0.128-0.016 0.224-0.016l45.072 0c12.368 0 22.528 5.056 22.528 11.264 0 6.208-10.16 11.264-22.528 11.264l-45.072 0c-0.08 0-0.128-0.016-0.224-0.016l0 67.648c0.08 0 0.128-0.016 0.224-0.016l45.072 0c12.368 0 22.528 5.056 22.528 11.264 0 6.208-10.16 11.264-22.528 11.264l-45.072 0c-0.08 0-0.128-0.016-0.224-0.016l0 67.648c0.08 0 0.128-0.016 0.224-0.016l45.072 0c12.368 0 22.528 5.056 22.528 11.264 0 6.208-10.16 11.264-22.528 11.264l-45.072 0c-0.08 0-0.128-0.016-0.224-0.016l0 67.648c0.08 0 0.128-0.016 0.224-0.016l45.072 0c12.368 0 22.528 5.056 22.528 11.264 0 6.208-10.16 11.264-22.528 11.264l-45.072 0c-0.08 0-0.128-0.016-0.224-0.016l0 67.648c0.08 0 0.128-0.016 0.224-0.016l45.072 0c12.368 0 22.528 5.056 22.528 11.264 0 6.208-10.16 11.264-22.528 11.264l-45.072 0c-0.08 0-0.128-0.016-0.224-0.016l0 67.648c0.08 0 0.128-0.016 0.224-0.016l45.072 0c12.368 0 22.528 5.056 22.528 11.264 0 6.208-10.16 11.264-22.528 11.264l-45.072 0c-0.08 0-0.128-0.016-0.224-0.016l0 67.648c0.08 0 0.128-0.016 0.224-0.016l45.072 0c12.368 0 22.528 5.056 22.528 11.264 0 6.208-10.16 11.264-22.528 11.264l-45.072 0c-0.08 0-0.128-0.016-0.224-0.016l0 90.16c0 24.976 20.288 45.296 45.296 45.296l135.216 0c24.96 0 45.296-20.32 45.296-45.296L422.096 106.368C422.08 81.392 401.744 61.072 376.8 61.072z" p-id="4068" fill="#ffffff"></path></svg>