<?xml version="1.0" standalone="no"?><!DOCTYPE svg PUBLIC "-//W3C//DTD SVG 1.1//EN" "http://www.w3.org/Graphics/SVG/1.1/DTD/svg11.dtd"><svg t="1498810273904" class="icon" style="" viewBox="0 0 1024 1024" version="1.1" xmlns="http://www.w3.org/2000/svg" p-id="3304" xmlns:xlink="http://www.w3.org/1999/xlink" width="200" height="200"><defs><style type="text/css"></style></defs><path d="M193.856 218.72l21.952 21.952-89.856 89.856 70.016 70.016 90.272-90.272 20.512 20.512-90.272 90.304 69.12 69.088 205.312-205.312-249.984-248.512-204.576 204.576 67.648 67.68 89.856-89.888zM739.168 533.088l-205.312 205.344 69.088 69.088 90.304-90.272 20.512 20.512-90.272 90.272 70.016 70.016 89.824-89.856 21.952 21.952-89.824 89.856 67.616 67.648 204.608-204.608-248.512-249.952zM954.304 270.432c24.992-25.024 25.184-65.44 0.384-90.272l-112.384-112.352c-24.8-24.8-65.248-24.672-90.24 0.384l-69.44 69.44 202.24 202.24 69.44-69.44zM108.736 830.144l83.936 83.936 169.088-60.064-192.96-192.96-60.064 169.088zM660.8 158.176l-476.32 476.352 203.808 203.808 476.352-476.352-203.84-203.808zM277.024 634.112l383.392-383.392 22.336 22.336-383.424 383.424-22.304-22.368zM321.696 678.816l383.36-383.392 22.336 22.336-383.392 383.36-22.304-22.304zM366.368 723.456l383.392-383.392 22.304 22.336-383.36 383.392-22.336-22.336zM62.528 960.32l98.112-35.744-62.368-62.368-35.744 98.112z" p-id="3305" fill="#ffffff"></path></svg>