<?xml version="1.0" standalone="no"?><!DOCTYPE svg PUBLIC "-//W3C//DTD SVG 1.1//EN" "http://www.w3.org/Graphics/SVG/1.1/DTD/svg11.dtd"><svg t="1498110988042" class="icon" style="" viewBox="0 0 1024 1024" version="1.1" xmlns="http://www.w3.org/2000/svg" p-id="6383" xmlns:xlink="http://www.w3.org/1999/xlink" width="200" height="200"><defs><style type="text/css"></style></defs><path d="M512.00614 66.663282c-245.956761 0-445.344904 191.256952-445.344904 437.20962 0 245.953691 199.38712 453.464839 445.345927 453.464839 245.945505 0 445.330578-199.38405 445.330578-445.338764C957.336718 266.046309 757.951645 66.663282 512.00614 66.663282zM511.595794 864.466564c-195.507766 0-353.99436-158.483524-353.99436-353.977987 0-195.491393 158.486594-353.97594 353.99436-353.97594 195.496509 0 353.98208 158.482501 353.98208 353.97594C865.578898 705.983039 707.093327 864.466564 511.595794 864.466564z" p-id="6384" fill="#1296db"></path><path d="M277.856285 468.23831l471.071845 0 0 87.044472-471.071845 0 0-87.044472Z" p-id="6385" fill="#1296db"></path></svg>