<?xml version="1.0" standalone="no"?><!DOCTYPE svg PUBLIC "-//W3C//DTD SVG 1.1//EN" "http://www.w3.org/Graphics/SVG/1.1/DTD/svg11.dtd"><svg t="1498018378811" class="icon" style="" viewBox="0 0 1127 1024" version="1.1" xmlns="http://www.w3.org/2000/svg" p-id="12390" xmlns:xlink="http://www.w3.org/1999/xlink" width="220.1171875" height="200"><defs><style type="text/css"></style></defs><path d="M508.144428 44.180864C508.144428 19.780454 527.773389 0 552.367263 0 576.790861 0 596.590098 19.606323 596.590098 44.180864L596.590098 132.710502C596.590098 157.110912 576.961137 176.891341 552.367263 176.891341 527.943665 176.891341 508.144428 157.285018 508.144428 132.710502L508.144428 44.180864ZM261.154796 206.402918C278.408492 223.656627 278.515604 251.523277 261.12511 268.913766 243.855017 286.183859 215.991068 286.320256 198.614259 268.943462L136.014354 206.343552C118.760658 189.089843 118.653545 161.223194 136.04404 143.832704 153.314132 126.562611 181.178079 126.426214 198.554888 143.803008L261.154796 206.402918ZM906.179635 143.803008C923.433334 126.549325 951.299988 126.442214 968.690486 143.832704 985.960576 161.102797 986.09698 188.966733 968.720172 206.343552L906.120266 268.943462C888.866568 286.197146 860.999913 286.304256 843.609416 268.913766 826.339325 251.643674 826.202921 223.779738 843.57973 206.402918L906.179635 143.803008ZM921.780076 873.029197C962.27103 840.991002 999.226724 806.779213 1032.030234 772.529843 1051.890437 751.794253 1066.151119 735.409101 1074.117455 725.510067 1113.778803 681.000013 1113.897475 607.260262 1071.740032 561.053235 1071.740032 561.053235 1051.890437 537.542758 1032.030234 516.807194 999.226724 482.557798 962.27103 448.34601 921.780076 416.307814 803.132216 322.428467 678.559754 265.337011 551.808317 265.337011 425.056883 265.337011 300.484421 322.428467 181.836562 416.307814 141.345608 448.34601 104.389914 482.557798 71.586404 516.807194 51.7262 537.542758 37.465518 553.92791 29.499182 563.826944-10.162166 608.336998-10.280837 682.076749 31.876605 728.283776 31.876605 728.283776 51.7262 751.794253 71.586404 772.529843 104.389914 806.779213 141.345608 840.991002 181.836562 873.029197 300.484421 966.908544 425.056883 1024 551.808317 1024 678.559754 1024 803.132216 966.908544 921.780076 873.029197ZM255.010491 780.549555C219.061018 752.104755 186.016044 721.513344 156.752079 690.959514 146.556989 680.315059 137.595671 670.475008 129.969457 661.712691 125.545001 656.629094 122.646164 653.158963 121.371456 651.574989L118.994033 648.801306C117.802808 647.495654 117.811858 641.873024 119.504397 639.969024 122.646164 636.178048 125.545001 632.707917 129.969457 627.62432 137.595671 618.862003 146.556989 609.021952 156.752079 598.377498 186.016044 567.823693 219.061018 537.232256 255.010491 508.787456 354.763845 429.858278 456.430403 383.264589 551.808317 383.264589 647.186235 383.264589 748.852792 429.858278 848.606147 508.787456 884.55562 537.232256 917.600594 567.823693 946.864558 598.377498 957.059648 609.021952 966.020964 618.862003 973.647181 627.62432 978.071636 632.707917 980.970473 636.178048 982.245181 637.762022L984.622605 640.535731C985.813829 641.841382 985.80478 647.463987 984.112241 649.367987 980.970473 653.158963 978.071636 656.629094 973.647181 661.712691 966.020964 670.475008 957.059648 680.315059 946.864558 690.959514 917.600594 721.513344 884.55562 752.104755 848.606147 780.549555 748.852792 859.478758 647.186235 906.072448 551.808317 906.072448 456.430403 906.072448 354.763845 859.478758 255.010491 780.549555ZM552.367263 796.011059C641.920456 796.011059 714.51766 723.413837 714.51766 633.860659 714.51766 544.307456 641.920456 471.710259 552.367263 471.710259 462.81407 471.710259 390.216863 544.307456 390.216863 633.860659 390.216863 723.413837 462.81407 796.011059 552.367263 796.011059Z" p-id="12391" fill="#1296db"></path></svg>